<?xml version="1.0" encoding="UTF-8"?>
<svg id="Layer_1" data-name="Layer 1" xmlns="http://www.w3.org/2000/svg" viewBox="0 0 1000 833.33">
  <defs>
    <style>
      .cls-1 {
        fill: #2f4858;
      }
    </style>
  </defs>
  <path class="cls-1" d="M926.69,694.45H73.31c-40.32,0-73.31,27.7-73.31,61.55v15.78c0,33.85,32.99,61.55,73.31,61.55H926.69c40.32,0,73.31-27.7,73.31-61.55v-15.78c0-33.85-32.99-61.55-73.31-61.55Z"/>
  <path class="cls-1" d="M926.69,347.23H73.31c-40.32,0-73.31,27.69-73.31,61.55v15.78c0,33.85,32.99,61.55,73.31,61.55H926.69c40.32,0,73.31-27.7,73.31-61.55v-15.78c0-33.86-32.99-61.55-73.31-61.55Z"/>
  <path class="cls-1" d="M926.69,0H73.31C32.99,0,0,27.7,0,61.56v15.78c0,33.85,32.99,61.55,73.31,61.55H926.69c40.32,0,73.31-27.7,73.31-61.55v-15.78c0-33.86-32.99-61.56-73.31-61.56Z"/>
</svg>