<?xml version="1.0" encoding="utf-8"?>
<!-- Generator: Adobe Illustrator 26.3.1, SVG Export Plug-In . SVG Version: 6.00 Build 0)  -->
<svg version="1.1" id="Layer_1" xmlns="http://www.w3.org/2000/svg" xmlns:xlink="http://www.w3.org/1999/xlink" x="0px" y="0px"
	 viewBox="0 0 1000 1000" style="enable-background:new 0 0 1000 1000;" xml:space="preserve">
<style type="text/css">
	.st0{opacity:0.85;fill:none;}
	.st1{opacity:0.85;fill:#F2DD1D;}
	.st2{opacity:0.85;fill:#473BCC;}
	.st3{opacity:0.85;fill:#33CCF2;}
	.st4{opacity:0.85;fill:#ED8A24;}
	.st5{opacity:0.85;fill:#FC3F3F;}
	.st6{opacity:0.85;fill:#ED5AE8;}
	.st7{opacity:0.85;fill:#2228D4;}
	.st8{opacity:0.85;fill:#69E647;}
	.st9{opacity:0.85;fill:#FD9300;}
</style>
<polygon class="st0" points="250.9,139.8 237.3,152.2 277.6,196.4 316.2,161.2 286.1,128.2 261.2,151 "/>
<polygon class="st0" points="981.6,471.7 984.6,504.6 1000,503.2 1000,470 "/>
<polygon class="st0" points="286.4,122.1 308,102.3 283.8,75.8 237.2,118.4 251.2,133.6 276.1,110.8 "/>
<polygon class="st0" points="254.1,136.8 253.4,136 261.5,144.9 283.2,125 275.8,117 "/>
<polygon class="st0" points="621,454 621,427 588,427 588,485 607,485 607,454 "/>
<polygon class="st0" points="611,489 611,506 666,506 666,458 625,458 625,489 "/>
<polygon class="st0" points="810.4,51.9 827.4,53 830.8,0 782.7,0 780.4,36 811.3,37.9 "/>
<rect x="611" y="458" class="st0" width="10" height="27"/>
<polygon class="st0" points="806.4,51.7 806.2,55.6 775.2,53.7 776.1,39.7 749.2,38 747.1,70.9 805,74.6 807.1,41.7 780.1,39.9 
	779.5,49.9 "/>
<polygon class="st0" points="338.1,915.4 363.3,956.2 398.2,934.7 381.9,908.3 393.8,900.9 384.9,886.5 "/>
<polygon class="st0" points="8.5,469.2 0,470 0,503.2 42.4,499.2 40.6,480.3 9.8,483.2 "/>
<polygon class="st0" points="0,706.5 0,712.9 4.2,713 "/>
<rect x="12.8" y="467.6" transform="matrix(0.9957 -9.241980e-02 9.241980e-02 0.9957 -43.5647 4.4575)" class="st0" width="27" height="10"/>
<polygon class="st0" points="783,995 782.7,1000 830.8,1000 830.9,998.1 "/>
<polygon class="st0" points="395.9,904.4 399.3,902.3 415.6,928.6 403.7,936 417.9,958.9 445.9,941.6 415.5,892.3 387.4,909.6 
	401.6,932.6 410.1,927.3 "/>
<circle class="st1" cx="588" cy="947" r="9"/>
<path class="st1" d="M842.2,777.2l-0.3-0.3c-1.7-2.2-4.6-3.1-7.3-2.6c-5.5,1.1-13.2-2-23.6-6.6c-14-6.2-29.9-13.2-42.9-2.9
	c-13.4,10.8-9.9,28-6.7,43.2c2.8,13.6,4.3,22.9-1,27.1c-6,4.8-15.3,1.2-28.8-4.8c-10.1-4.5-21.1-9.3-31.2-7.6
	c-5.5,0.9-8,7.5-4.5,11.8l0.3,0.4c1.6,2.1,4.3,2.9,6.9,2.5c5.1-0.8,12.5,2.2,22.4,6.5c13.7,6,30.7,13.6,44.2,2.8
	c12.9-10.3,9.4-27.1,6.3-41.9c-2.9-14.1-4.4-23.8,1.4-28.4c5.4-4.3,14.4-0.9,27.4,4.9c10.7,4.7,22.4,9.9,33.1,7.6
	C843.4,787.8,845.6,781.5,842.2,777.2L842.2,777.2z"/>
<polygon class="st1" points="250.9,139.7 250.9,139.8 250.9,139.8 261.2,151 286.1,128.2 283.2,125 261.5,144.9 253.4,136 
	251.2,133.6 251.2,133.6 237.2,118.4 283.8,75.8 308,102.3 286.4,122.1 289.3,125.3 314.2,102.6 284.1,69.6 231.1,118.1 248,136.5 
	248,136.5 "/>
<polygon class="st1" points="363.3,956.2 338.1,915.4 384.9,886.5 393.8,900.9 397.2,898.8 386.2,881 332.5,914.1 362,961.7 
	400.3,938.1 398.2,934.7 "/>
<polygon class="st1" points="415.6,928.6 399.3,902.3 395.9,904.4 410.1,927.3 401.6,932.6 403.7,936 "/>
<polygon class="st1" points="217.3,419.2 256.4,387 235.8,383.9 270.3,356.3 242.2,343.6 196.1,387.9 217.2,391.1 180.8,421.7 
	201,425.2 158.3,463.6 230.9,423.3 "/>
<rect x="881.8" y="89.4" transform="matrix(0.7071 -0.7071 0.7071 0.7071 183.6563 677.2486)" class="st1" width="55.2" height="55.2"/>
<polygon class="st1" points="876.9,558.5 821,611.7 862.7,632 "/>
<polygon class="st1" points="84.2,939.8 161.2,945.9 148.4,901.3 "/>
<circle class="st1" cx="365" cy="625" r="9"/>
<circle class="st1" cx="767" cy="157" r="9"/>
<circle class="st1" cx="547" cy="263" r="9"/>
<path class="st2" d="M599.8,277.3l0.3,0.5c1.2,2.3,3.7,3.7,6.3,3.8c5.2,0.2,11.9,4.5,20.8,10.6c12.3,8.5,27.6,19.1,43,11
	c14.6-7.7,14.3-24.8,14.1-39.9c-0.2-14.4,0.1-24.2,6.8-27.7c6.1-3.2,14.3,1.8,26,10c9.6,6.6,20.1,13.9,31.1,13.7
	c5.4-0.1,8.8-6,6.3-10.8l0,0l-0.2-0.4c-1.3-2.5-3.9-3.9-6.7-3.9c-5.6,0-12.6-4.5-21.9-10.9c-12.6-8.7-26.3-18.9-41.6-10.9
	c-15.2,8.1-15,25.6-14.7,41.1c0.2,13.9-0.1,23.3-6.1,26.4c-6.8,3.6-15.2-1.7-27.4-10.1c-9-6.3-19-13.1-29.2-13.4
	C600.9,266.4,597.2,272.3,599.8,277.3z"/>
<path class="st2" d="M244.1,701L244.1,701l-0.4-0.2c-2.4-1.5-5.3-1.4-7.7,0.1c-4.8,2.9-13.2,2.6-24.4,1.8
	c-15.3-1-32.7-2.2-41.3,11.9c-9,14.7,0.2,29.7,8.4,42.9c7.3,11.9,11.8,20.1,8.3,25.8c-4,6.5-14,6.3-28.7,5.3
	c-11-0.8-23-1.6-31.9,3.4c-4.9,2.8-5,9.8-0.2,12.7l0.5,0.3c2.3,1.4,5,1.3,7.4,0c4.5-2.5,12.5-2.2,23.3-1.5
	c14.9,1,33.5,2.3,42.5-12.5c8.6-14.1-0.4-28.6-8.3-41.5c-7.6-12.3-12.2-20.8-8.3-27.2c3.6-5.9,13.2-5.7,27.5-4.7
	c11.6,0.8,24.4,1.7,33.7-4.1C248.8,710.6,248.8,703.9,244.1,701z"/>
<polygon class="st2" points="560.2,670.1 546.9,686.2 540.9,642.4 515.5,660.1 530.1,722.3 543.6,705.9 551.3,752.8 564.7,737.2 
	575.8,793.5 578.3,710.5 567.8,720.2 "/>
<circle class="st2" cx="525" cy="505" r="9"/>
<circle class="st2" cx="446" cy="179" r="9"/>
<circle class="st2" cx="769" cy="504" r="9"/>
<circle class="st2" cx="236" cy="956" r="9"/>
<circle class="st2" cx="769" cy="924" r="9"/>
<circle class="st2" cx="317" cy="47" r="9"/>
<path class="st2" d="M9,56c0-5-4-9-9-9v18C5,65,9,61,9,56z"/>
<circle class="st2" cx="111" cy="292" r="9"/>
<path class="st2" d="M991,56c0,5,4,9,9,9V47C995,47,991,51,991,56z"/>
<polygon class="st3" points="404.8,729.8 464.2,775.1 441.4,701.4 "/>
<circle class="st3" cx="263.5" cy="860.5" r="34.5"/>
<circle class="st3" cx="364.5" cy="334.5" r="34.5"/>
<circle class="st3" cx="132" cy="119" r="9"/>
<polygon class="st3" points="543.2,26.1 563.1,32.4 524.7,54.3 550.6,71.2 602.9,34.6 582.6,28.2 623.3,3.5 613,0 586.2,0 
	586.9,0.3 "/>
<path class="st4" d="M917,9c5,0,9-4,9-9h-18C908,5,912,9,917,9z"/>
<circle class="st3" cx="917" cy="537" r="9"/>
<circle class="st3" cx="547" cy="860" r="9"/>
<circle class="st3" cx="795" cy="691" r="9"/>
<circle class="st3" cx="500" cy="394" r="9"/>
<path class="st3" d="M13,310c0-5-4-9-9-9c-1.4,0-2.8,0.3-4,0.9v16.1c1.2,0.6,2.6,0.9,4,0.9C9,319,13,315,13,310z"/>
<path class="st3" d="M4,938c0-3.1-1.6-5.9-4-7.5v15C2.4,943.9,4,941.1,4,938z"/>
<path class="st3" d="M995,310c0,3.5,2,6.6,5,8.1v-16.1C997,303.4,995,306.5,995,310z"/>
<path class="st3" d="M986,938c0,5,4,9,9,9c1.9,0,3.6-0.6,5-1.5v-15c-1.4-1-3.1-1.5-5-1.5C990,929,986,933,986,938z"/>
<polygon class="st3" points="652,965.6 574.1,994.2 586.2,1000 613,1000 603.9,996.9 "/>
<rect x="163.8" y="539.4" transform="matrix(0.7071 -0.7071 0.7071 0.7071 -344.838 301.3519)" class="st5" width="55.2" height="55.2"/>
<polygon class="st5" points="860.5,900.8 935.1,894.7 868.8,855.2 "/>
<circle class="st5" cx="652" cy="370" r="9"/>
<circle class="st5" cx="626" cy="595" r="9"/>
<circle class="st5" cx="101" cy="385" r="9"/>
<polygon class="st5" points="775.2,53.7 806.2,55.6 806.4,51.7 779.5,49.9 780.1,39.9 776.1,39.7 "/>
<polygon class="st5" points="780.4,36 782.7,0 778.7,0 776.4,35.7 "/>
<polygon class="st5" points="827.4,53 810.4,51.9 810.2,55.9 831.1,57.2 834.8,0 830.8,0 "/>
<path class="st5" d="M415.5,53c19.1,0,34.5-15.4,34.5-34.5c0-6.8-2-13.2-5.4-18.5h-58.2C383,5.3,381,11.7,381,18.5
	C381,37.6,396.4,53,415.5,53z"/>
<circle class="st5" cx="78" cy="887" r="9"/>
<path class="st5" d="M26.2,187.8c9.2-11.2,15.7-18.3,23-16.7c6.8,1.5,9.7,10.6,13.4,24.4c3,11.2,6.3,23.6,14.8,30.5
	c4.2,3.4,10.6,1.1,11.8-4.2l0,0l0.1-0.4c0.6-2.7-0.4-5.5-2.6-7.3c-4.3-3.6-6.7-11.6-9.6-22.5c-4-14.8-8.5-31.6-24.6-35.2
	c-16.8-3.7-28,9.9-37.8,21.8C8.9,185.2,4.3,190.4,0,193v16.1C10.7,206.6,18.8,196.8,26.2,187.8z"/>
<polygon class="st5" points="42.9,462 12.1,464.9 12.4,468.9 39.3,466.4 40.2,476.3 40.2,476.3 40.6,480.3 40.6,480.3 42.4,499.2 
	0,503.2 0,507.2 46.7,502.8 "/>
<polygon class="st5" points="8.5,469.2 8.1,465.3 0,466 0,470 "/>
<path class="st5" d="M992.8,194.5c-7.5-1.6-10.5-11.1-14.4-25.4c-2.8-10.6-6-22.3-13.6-29.1c-4.2-3.7-10.8-1.6-12.1,3.9l-0.1,0.5
	c-0.6,2.6,0.4,5.2,2.4,7c3.8,3.5,6.1,11.1,8.9,21.5c3.9,14.5,8.7,32.5,25.6,36.2c3.7,0.8,7.2,0.7,10.4,0V193
	C997.6,194.5,995.2,195,992.8,194.5z"/>
<polygon class="st5" points="981,508.9 1000,507.2 1000,503.2 984.6,504.6 981.6,471.7 1000,470 1000,466 977.2,468.1 "/>
<polygon class="st5" points="779.3,990.8 778.7,1000 782.7,1000 783,995 830.9,998.1 830.8,1000 834.8,1000 835.2,994.4 "/>
<path class="st5" d="M415.5,984c-12.2,0-23,6.4-29.1,16h58.2C438.5,990.4,427.7,984,415.5,984z"/>
<polygon class="st6" points="625,489 625,458 621,458 621,485 611,485 607,485 588,485 588,427 621,427 621,454 625,454 625,423 
	584,423 584,489 607,489 611,489 "/>
<rect x="448.8" y="278.4" transform="matrix(0.7071 -0.7071 0.7071 0.7071 -76.8081 426.4329)" class="st6" width="55.1" height="55.1"/>
<polygon class="st6" points="604.4,136.2 530.2,126.1 586.5,179 "/>
<circle class="st6" cx="937" cy="369" r="9"/>
<polygon class="st6" points="810.4,51.9 810.4,51.9 810.4,51.9 811.3,37.9 780.4,36 780.1,39.9 807.1,41.7 805,74.6 747.1,70.9 
	749.2,38 776.1,39.7 776.4,35.7 745.5,33.7 742.8,74.6 808.7,78.9 810.2,55.9 810.2,55.9 "/>
<rect x="776.3" y="35.8" transform="matrix(6.417802e-02 -0.9979 0.9979 6.417802e-02 690.5757 812.0577)" class="st6" width="4" height="4"/>
<polygon class="st6" points="810.4,51.9 810.4,51.9 810.2,55.9 810.2,55.9 810.4,51.9 "/>
<path class="st6" d="M507,9c5,0,9-4,9-9h-18C498,5,502,9,507,9z"/>
<circle class="st6" cx="652" cy="753" r="9"/>
<circle class="st6" cx="238" cy="613" r="9"/>
<circle class="st6" cx="101" cy="753" r="9"/>
<circle class="st6" cx="937" cy="640" r="9"/>
<circle class="st6" cx="767" cy="344" r="9"/>
<path class="st6" d="M12,852.5c0-10.5-4.7-19.8-12-26.1v52.3C7.3,872.3,12,863,12,852.5z"/>
<path class="st6" d="M943,852.5c0,19.1,15.4,34.5,34.5,34.5c8.6,0,16.5-3.2,22.5-8.4v-52.3c-6-5.2-13.9-8.4-22.5-8.4
	C958.4,818,943,833.4,943,852.5z"/>
<path class="st6" d="M507,991c-5,0-9,4-9,9h18C516,995,512,991,507,991z"/>
<polygon class="st7" points="276.1,110.8 251.2,133.6 253.4,136 254.1,136.8 275.8,117 283.2,125 286.4,122.1 "/>
<polygon class="st7" points="286.1,128.2 316.2,161.2 277.6,196.4 237.3,152.2 250.9,139.8 248,136.5 231.1,152 277.3,202.6 
	322.3,161.4 289.3,125.3 "/>
<polygon class="st7" points="250.9,139.8 250.9,139.7 248,136.5 248,136.5 250.9,139.8 "/>
<polygon class="st7" points="251.2,133.6 253.4,136 251.2,133.6 "/>
<rect x="284.1" y="123" transform="matrix(0.7381 -0.6747 0.6747 0.7381 -9.4862 225.9156)" class="st7" width="4.3" height="4.4"/>
<path class="st8" d="M386.6,520.8c-5.1-5.7-2-15.2,3.2-29c3.9-10.3,8.2-21.6,5.9-31.5c-1.2-5.5-7.9-7.6-12.1-3.9l-0.4,0.4
	c-2,1.8-2.7,4.5-2.1,7c1.1,5-1.5,12.6-5.3,22.7c-5.3,14-11.9,31.4-0.4,44.3c11,12.3,27.5,7.9,42.1,4c14-3.7,23.5-5.7,28.5-0.1
	c4.6,5.2,1.7,14.3-3.4,27.7c-4.1,10.9-8.7,22.9-5.8,33.4c1.4,5.2,7.9,7.1,12,3.5l0,0l0.3-0.3c2.1-1.8,2.9-4.7,2.2-7.4
	c-1.4-5.4,1.3-13.3,5.3-23.9c5.4-14.4,11.6-30.6,0.5-43c-11.5-12.8-28.5-8.4-43.5-4.4C400.3,523.9,391.2,525.9,386.6,520.8z"/>
<polygon class="st8" points="397.2,898.8 397.2,898.9 393.8,900.9 393.8,901 393.8,901 393.8,900.9 393.8,900.9 381.9,908.3 
	398.2,934.7 401.6,932.6 387.4,909.6 415.5,892.3 445.9,941.6 417.9,958.9 403.7,936 400.3,938.1 416.5,964.5 451.4,942.9 
	416.8,886.8 "/>
<rect x="393.5" y="899.9" transform="matrix(0.8508 -0.5255 0.5255 0.8508 -413.8727 342.0831)" class="st8" width="4" height="0"/>
<rect x="398.9" y="933.3" transform="matrix(0.8509 -0.5253 0.5253 0.8509 -431.5478 350.0313)" class="st8" width="4" height="4"/>
<polygon class="st8" points="393.8,901 393.8,900.9 393.8,901 "/>
<polygon class="st8" points="851.5,345.5 893.2,316.8 873,311.8 909.8,287.3 882.8,272.2 833.1,312.4 853.8,317.4 814.9,344.8 
	834.7,350 788.9,384.5 864.7,350.7 "/>
<polygon class="st8" points="110.3,62.5 149.3,23.5 125.8,0 94.9,0 71.3,23.5 "/>
<circle class="st8" cx="898" cy="219" r="9"/>
<circle class="st8" cx="299" cy="738" r="9"/>
<circle class="st8" cx="356" cy="241" r="9"/>
<circle class="st8" cx="130" cy="514" r="9"/>
<polygon class="st8" points="8.3,424.1 56.1,419.6 61.2,474.4 44.2,476 44.6,479.9 65.5,478 59.7,415.3 3.9,420.4 8.1,465.3 
	12.1,464.9 "/>
<polygon class="st8" points="9.8,483.2 40.6,480.3 40.2,476.3 13.4,478.8 12.4,468.9 8.5,469.2 "/>
<rect x="8.3" y="465.1" transform="matrix(0.9957 -9.237061e-02 9.237061e-02 0.9957 -43.0987 2.9451)" class="st8" width="4" height="4"/>
<rect x="40.4" y="476.3" transform="matrix(0.9957 -9.256352e-02 9.256352e-02 0.9957 -44.1014 5.7961)" class="st8" width="0" height="4"/>
<polygon class="st8" points="20.4,719 77.8,717.7 0,701.8 0,706.5 4.2,713 0,712.9 0,734.6 33.5,734.8 "/>
<polygon class="st8" points="1000,706.5 1000,701.8 996.5,701 "/>
<polygon class="st8" points="953.5,711.9 967.1,727.8 922.9,726.2 936,754.2 999.8,750.6 985.9,734.4 1000,734.6 1000,712.9 "/>
<polygon class="st8" points="94.9,1000 125.8,1000 110.3,984.5 "/>
<rect x="632.8" y="878.4" transform="matrix(0.7071 -0.7071 0.7071 0.7071 -447.1839 732.2792)" class="st8" width="55.2" height="55.2"/>
<circle class="st9" cx="889" cy="768" r="9"/>
<circle class="st4" cx="902.5" cy="456.5" r="34.5"/>
<circle class="st4" cx="396" cy="826" r="9"/>
<polygon class="st4" points="607,454 607,485 611,485 611,458 621,458 621,454 "/>
<polygon class="st4" points="670,510 670,454 625,454 625,458 666,458 666,506 611,506 611,489 607,489 607,510 "/>
<rect x="621" y="454" class="st4" width="4" height="4"/>
<polygon class="st4" points="176,202.4 176,279.6 219.4,263.3 "/>
<circle class="st4" cx="704.5" cy="674.5" r="34.5"/>
<circle class="st4" cx="308" cy="474" r="9"/>
<circle class="st4" cx="56" cy="607" r="9"/>
<circle class="st4" cx="643" cy="88" r="9"/>
<path class="st4" d="M917,991c-5,0-9,4-9,9h18C926,995,922,991,917,991z"/>
</svg>
