<?xml version="1.0" encoding="UTF-8"?>
<svg id="Layer_1" data-name="Layer 1" xmlns="http://www.w3.org/2000/svg" viewBox="0 0 504 504">
  <defs>
    <style>
      .cls-1 {
        fill: #352063;
      }
    </style>
  </defs>
  <path class="cls-1" d="M276.92,8.3L28.91,194.11C10.71,207.74,0,229.16,0,251.9H0c0,22.73,10.7,44.13,28.88,57.77l248.03,186.02c7.2,5.4,15.95,8.31,24.94,8.31h1.83c39.38,0,56.69-49.67,25.83-74.14l-167.52-132.86H459.01c24.85,0,44.99-20.14,44.99-44.99h0c0-24.86-20.16-45-45.01-44.99l-296.99,.17L327.88,73.98C358.48,49.4,341.1,0,301.85,0h0c-8.99,0-17.73,2.91-24.93,8.3Z"/>
</svg>