<?xml version="1.0" encoding="utf-8"?>
<!-- Generator: Adobe Illustrator 26.3.1, SVG Export Plug-In . SVG Version: 6.00 Build 0)  -->
<svg version="1.1" id="Layer_1" xmlns="http://www.w3.org/2000/svg" xmlns:xlink="http://www.w3.org/1999/xlink" x="0px" y="0px"
	 viewBox="0 0 1000 662.67" style="enable-background:new 0 0 1000 662.67;" xml:space="preserve">
<style type="text/css">
	.st0{fill:#330066;}
	.st1{fill:#CFFFDB;}
</style>
<path class="st0" d="M780.36,152.92h143.19L1000,0H226.76l-84.94,254.88H76.46L0,407.79h90.82L5.87,662.67h154.31l59.47-174.28
	v174.28H781.5l-0.96-254.88h90.34l76.47-152.91h-167V152.92z M382.3,254.88l-9.73,19.47V152.92h137.17l-50.97,101.96H382.3z
	 M490.27,509.74l50.97-101.96h76.47l9.73-19.47v121.42H490.27z"/>
<polygon class="st1" points="754.87,127.44 754.87,280.36 907.79,280.36 856.82,382.31 754.87,382.31 754.87,637.17 652.92,637.17 
	652.92,127.44 576.46,280.36 652.92,280.36 601.95,382.31 525.49,382.31 449.03,535.23 652.92,535.23 601.95,637.17 245.13,637.17 
	245.13,331.33 143.18,637.17 41.24,637.17 126.19,382.31 41.24,382.31 92.21,280.36 160.18,280.36 245.13,25.49 347.08,25.49 
	347.08,535.23 423.54,382.31 347.08,382.31 398.05,280.36 474.51,280.36 550.97,127.44 347.08,127.44 398.05,25.49 958.76,25.49 
	907.79,127.44 "/>
</svg>
