<?xml version="1.0" encoding="UTF-8"?>
<svg id="Layer_2" data-name="Layer 2" xmlns="http://www.w3.org/2000/svg" viewBox="0 0 500 500">
  <defs>
    <style>
      .cls-1 {
        fill: #fff;
      }
    </style>
  </defs>
  <g id="Layer_2-2" data-name="Layer 2">
    <path class="cls-1" d="M189.46,60c34.58,0,67.09,13.47,91.54,37.92,24.45,24.45,37.92,56.96,37.92,91.54s-13.47,67.09-37.92,91.54c-24.45,24.45-56.96,37.92-91.54,37.92s-67.09-13.47-91.54-37.92c-24.45-24.45-37.92-56.96-37.92-91.54s13.47-67.09,37.92-91.54c24.45-24.45,56.96-37.92,91.54-37.92m0-60C84.82,0,0,84.82,0,189.46s84.82,189.46,189.46,189.46,189.46-84.82,189.46-189.46S294.09,0,189.46,0h0Z"/>
    <path class="cls-1" d="M491.21,491.21h0c-11.72,11.72-30.71,11.72-42.43,0l-161.52-161.52,42.43-42.43,161.52,161.52c11.72,11.72,11.72,30.71,0,42.43Z"/>
    <g>
      <rect class="cls-1" x="159.46" y="89.46" width="60" height="200" rx="30" ry="30"/>
      <rect class="cls-1" x="159.46" y="89.46" width="60" height="200" rx="30" ry="30" transform="translate(0 378.91) rotate(-90)"/>
    </g>
  </g>
</svg>